<?xml version="1.0" encoding="UTF-8" standalone="no"?>
<svg
   xmlns:dc="http://purl.org/dc/elements/1.1/"
   xmlns:cc="http://creativecommons.org/ns#"
   xmlns:rdf="http://www.w3.org/1999/02/22-rdf-syntax-ns#"
   xmlns:svg="http://www.w3.org/2000/svg"
   xmlns="http://www.w3.org/2000/svg"
   id="svg6"
   viewBox="-10 0 1034 1024"
   version="1.1">
  <metadata
     id="metadata12">
    <rdf:RDF>
      <cc:Work
         rdf:about="">
        <dc:format>image/svg+xml</dc:format>
        <dc:type
           rdf:resource="http://purl.org/dc/dcmitype/StillImage" />
        <dc:title></dc:title>
      </cc:Work>
    </rdf:RDF>
  </metadata>
  <defs
     id="defs10" />
  <g
     style="fill:#000000;fill-opacity:1"
     id="g4"
     transform="matrix(1,0,0,-1,-5,819)">
    <path
       style="fill:#000000;fill-opacity:1"
       id="path2"
       d="M 1012,307 Q 1012,171 945,56 878,-59 763,-126 648,-193 512,-193 376,-193 261,-126 146,-59 79,56 12,171 12,307 q 0,136 67,251 67,115 182,182 115,67 251,67 136,0 251,-67 115,-67 182,-182 67,-115 67,-251 z m -40,0 Q 972,497 837,632 702,767 512,767 322,767 187,632 52,497 52,307 52,117 187,-18 q 135,-135 325,-135 190,0 325,135 135,135 135,325 z M 695,66 q 4,-12 5,-19 1,-7 -2,-10 -4,-3 -13,-4 -9,-1 -26,-1 h -27 q -9,0 -14,2 -5,2 -7,4.5 -2,2.5 -3,6.5 l -29,87 H 416 L 389,48 q -1,-5 -4,-8 -2,-3 -7,-5 -5,-2 -13,-3 -9,-1 -23,0 -15,0 -24,1 -9,1 -12,4 -3,4 -2.5,11 0.5,7 4.5,19 l 134,383 q 2,6 4,9 3,4 9,6 6,2 16,2 10,1 27,1 20,0 32,-1 12,0 18,-2 7,-2 9,-6 3,-4 5,-10 z M 497,383 436,200 h 122 z m 85,171 q 0,-16 -5,-29 -5,-13 -16,-21 -10,-8 -25,-13 -15,-5 -35,-5 -20,0 -34,4 -14,4 -24,12.5 -10,8.5 -15,20.5 -5,12 -4,28 0,16 5,29 5,13 15.5,21.5 10.5,8.5 25.5,12.5 15,5 34,5 39,0 58,-17 20,-16 20,-48 z m -51,-2 q 0,13 -6.5,21 -6.5,8 -22.5,8 -14,0 -20.5,-7.5 Q 475,566 475,553 q 0,-14 6.5,-21.5 6.5,-7.5 22.5,-7.5 14,0 20,7 7,8 7,21 z" />
  </g>
</svg>
