<?xml version="1.0" encoding="UTF-8" standalone="no"?>
<svg
   xmlns:dc="http://purl.org/dc/elements/1.1/"
   xmlns:cc="http://creativecommons.org/ns#"
   xmlns:rdf="http://www.w3.org/1999/02/22-rdf-syntax-ns#"
   xmlns:svg="http://www.w3.org/2000/svg"
   xmlns="http://www.w3.org/2000/svg"
   id="svg6"
   viewBox="-10 0 1034 1024"
   version="1.1">
  <metadata
     id="metadata12">
    <rdf:RDF>
      <cc:Work
         rdf:about="">
        <dc:format>image/svg+xml</dc:format>
        <dc:type
           rdf:resource="http://purl.org/dc/dcmitype/StillImage" />
        <dc:title></dc:title>
      </cc:Work>
    </rdf:RDF>
  </metadata>
  <defs
     id="defs10" />
  <g
     style="fill:#0070c0;fill-opacity:1"
     id="g4"
     transform="matrix(1,0,0,-1,0,819)">
    <path
       style="fill:#0070c0;fill-opacity:1"
       id="path2"
       d="m 512,808 q 61,0 117,-39 56,-39 98,-110 86,-146 86,-352 0,-206 -86,-352 -42,-71 -98,-110 -56,-39 -117,-39 -61,0 -117,39 -56,39 -98,110 -86,146 -86,352 0,206 86,352 42,71 98,110 56,39 117,39 z m 0,-27 Q 459,781 409.5,746 360,711 321,645 282,578 260,490 238,402 238,307 238,212 259.5,124 281,36 321,-31 q 39,-66 88.5,-101 49.5,-35 102.5,-35 53,0 102.5,35 49.5,35 88.5,101 39,67 61,155 22,88 22,183 0,95 -21.5,183 Q 743,578 703,645 664,711 614.5,746 565,781 512,781 Z" />
  </g>
</svg>
