<?xml version="1.0" encoding="UTF-8" standalone="no"?>
<svg
   xmlns:dc="http://purl.org/dc/elements/1.1/"
   xmlns:cc="http://creativecommons.org/ns#"
   xmlns:rdf="http://www.w3.org/1999/02/22-rdf-syntax-ns#"
   xmlns:svg="http://www.w3.org/2000/svg"
   xmlns="http://www.w3.org/2000/svg"
   id="svg6"
   viewBox="-10 0 1032 1024"
   version="1.1">
  <metadata
     id="metadata12">
    <rdf:RDF>
      <cc:Work
         rdf:about="">
        <dc:format>image/svg+xml</dc:format>
        <dc:type
           rdf:resource="http://purl.org/dc/dcmitype/StillImage" />
        <dc:title></dc:title>
      </cc:Work>
    </rdf:RDF>
  </metadata>
  <defs
     id="defs10" />
  <g
     style="fill:#000000;fill-opacity:1"
     id="g4"
     transform="matrix(1,0,0,-1,-6,819)">
    <path
       style="fill:#000000;fill-opacity:1"
       id="path2"
       d="M 1012,307 Q 1012,171 945,56 878,-59 763,-126 648,-193 512,-193 376,-193 261,-126 146,-59 79,56 12,171 12,307 q 0,136 67,251 67,115 182,182 115,67 251,67 136,0 251,-67 115,-67 182,-182 67,-115 67,-251 z M 715,45 q 0,-4 -3,-7 -2,-3 -8.5,-6 Q 697,29 687,28.5 667,27 662,28 q -9,1 -27,1 -8,0 -16,3 -6,2 -9,6 -2,3 -2,7 V 257 H 411 V 45 q 0,-4 -2,-7.5 -2,-3.5 -8.5,-6 Q 394,29 384,28.5 363,27 358,28 q -9,1 -26,1 -8,0 -16,3 -6,2 -9,6 -2,3 -2,7 v 496 q 0,4 2,8 3,3 9,5.5 3,1.5 16,2.5 19,2 26,1 10,-1 26,-1 8,0 16.5,-3 6.5,-2 8.5,-5.5 2,-3.5 2,-7.5 V 348 h 197 v 193 q 0,4 2,8 3,3 9,5.5 3,1.5 16,2.5 20,2 27,1 9,-1 25,-1 8,0 16.5,-3 6.5,-2 8.5,-5 3,-3 3,-8 z M 972,307 Q 972,497 837,632 702,767 512,767 322,767 187,632 52,497 52,307 52,117 187,-18 q 135,-135 325,-135 190,0 325,135 135,135 135,325 z" />
  </g>
</svg>
