<?xml version="1.0" encoding="UTF-8" standalone="no"?>
<svg
   xmlns:dc="http://purl.org/dc/elements/1.1/"
   xmlns:cc="http://creativecommons.org/ns#"
   xmlns:rdf="http://www.w3.org/1999/02/22-rdf-syntax-ns#"
   xmlns:svg="http://www.w3.org/2000/svg"
   xmlns="http://www.w3.org/2000/svg"
   id="svg6"
   viewBox="-10 0 1034 1024"
   version="1.1">
  <metadata
     id="metadata12">
    <rdf:RDF>
      <cc:Work
         rdf:about="">
        <dc:format>image/svg+xml</dc:format>
        <dc:type
           rdf:resource="http://purl.org/dc/dcmitype/StillImage" />
        <dc:title></dc:title>
      </cc:Work>
    </rdf:RDF>
  </metadata>
  <defs
     id="defs10" />
  <g
     style="fill:#22b14c;fill-opacity:1"
     id="g4"
     transform="matrix(1,0,0,-1,0,819)">
    <path
       style="fill:#22b14c;fill-opacity:1"
       id="path2"
       d="m 514.645,770.084 q 92.8204,0 178.588,-35.2324 85.7676,-35.2324 151.424,-100.346 65.667,-65.1242 101.22,-150.249 35.5532,-85.1249 35.5532,-177.257 0,-92.1313 -35.5533,-177.257 -35.5533,-85.1252 -101.22,-150.249 -65.656,-65.1133 -151.424,-100.346 -85.7676,-35.2324 -178.588,-35.2324 -92.8204,0 -178.588,35.2324 -85.7676,35.2324 -151.424,100.346 -65.6669,65.1241 -101.22,150.249 -35.5533,85.1252 -35.5533,177.257 0,92.1319 35.5532,177.257 35.5532,85.1251 101.22,150.249 65.656,65.1133 151.424,100.346 85.7676,35.2324 178.588,35.2324 z m 32.288,-39.459 370.033,-277.313 q -32.5072,87.8483 -99.2451,154.034 -112.344,111.416 -270.788,123.279 z m -66.031,-0.112 Q 385.9554,723.08257 303.1,676.4603 l 630.791,-457.443 q 9.28809,43.4978 9.28809,87.9834 0,42.0726 -8.31543,83.3008 z M 268.72,654.914 q -30.6743,-21.3099 -57.1514,-47.5684 -21.5304,-21.3525 -39.7988,-45.5039 l 694.78,-497.284 q 37.4286,53.3879 57.0391,115.453 z M 149.331,529.097 Q 111.744,468.3384 96.2187,398.743 l 645.39,-452.1 q 41.5076,25.6918 76.1123,60.0107 12.822,12.7155 24.5361,26.4854 z M 89.3223,358.938 q -3.21289,-25.8726 -3.21289,-51.9385 0,-62.6864 18.2559,-122.687 l 437.354,-301.296 q 86.639,5.43276 164.344,43.8896 z M 130.865,117.971 q 31.1651,-62.1874 80.7031,-111.316 107.288,-106.4 258.192,-122.151 z" />
  </g>
</svg>
