<?xml version="1.0" encoding="UTF-8" standalone="no"?>
<svg
   xmlns:dc="http://purl.org/dc/elements/1.1/"
   xmlns:cc="http://creativecommons.org/ns#"
   xmlns:rdf="http://www.w3.org/1999/02/22-rdf-syntax-ns#"
   xmlns:svg="http://www.w3.org/2000/svg"
   xmlns="http://www.w3.org/2000/svg"
   id="svg6"
   viewBox="-10 0 1034 1024"
   version="1.1">
  <metadata
     id="metadata12">
    <rdf:RDF>
      <cc:Work
         rdf:about="">
        <dc:format>image/svg+xml</dc:format>
        <dc:type
           rdf:resource="http://purl.org/dc/dcmitype/StillImage" />
        <dc:title></dc:title>
      </cc:Work>
    </rdf:RDF>
  </metadata>
  <defs
     id="defs10" />
  <g
     style="fill:#0070c0;fill-opacity:1"
     id="g4"
     transform="matrix(1,0,0,-1,0,819)">
    <path
       style="fill:#0070c0;fill-opacity:1"
       id="path2"
       d="m 506,803 6,1 6,-1 h 6 6 1 5 1 6 l 6,-1 h 6 l 6,-1 6,-1 h 5 l 19,-2 -4,-40 -20,2 -4,1 -6,1 h -6 l -5,1 h -6 -5 -6 l -6,1 h -5 -1 -5 -6 -5 l -6,-1 h -4 l -20,-1 -2,40 20,1 h 4 1 5 1 z m -99,-11 20,5 8,-39 -19,-4 -4,-1 -6,-2 -6,-1 -5,-1 -5,-2 -6,-1 -5,-2 -5,-2 -6,-1 -5,-2 -5,-2 -5,-2 -5,-2 -5,-2 -19,-7 -14,37 18,7 5,2 6,2 5,2 h 1 l 5,2 6,2 6,2 5,2 h 1 l 5,2 6,1 6,2 6,1 v 1 l 6,1 6,1 z m 215,-41 12,38 19,-6 3,-1 6,-2 6,-2 5,-2 h 1 l 5,-2 6,-2 6,-2 5,-2 6,-2 5,-3 h 1 l 5,-2 5,-2 1,-1 5,-2 5,-3 h 1 l 18,-9 -18,-35 -18,9 -5,2 -5,2 -5,3 -5,2 -5,2 -5,2 -6,2 -5,2 -5,2 -5,2 -6,2 -5,1 -5,2 -4,1 z m -368,-20 17,11 21,-34 -17,-11 -2,-1 -5,-3 -5,-3 -4,-3 h -1 l -4,-3 -5,-3 -4,-3 -5,-4 -4,-3 -5,-4 -4,-3 -5,-4 -4,-3 -4,-4 h -1 l -14,-13 -27,30 15,13 h 1 l 5,4 4,4 5,4 5,4 5,3 4,4 h 1 l 4,4 h 1 l 4,3 h 1 l 4,4 h 1 l 4,3 h 1 l 4,3 1,1 5,3 5,3 z m 508,-41 23,32 16,-11 1,-1 5,-4 5,-4 5,-3 5,-4 4,-4 h 1 l 4,-4 5,-4 4,-4 h 1 l 4,-4 5,-4 4,-4 4,-4 1,-1 4,-4 1,-1 14,-14 -29,-28 -13,14 -1,1 -4,4 -4,4 -4,4 -5,4 -4,3 -4,4 -4,4 -5,3 -4,4 -4,3 -5,4 -4,3 -5,3 -1,2 z m -632,-66 12,15 31,-25 -13,-16 -1,-1 -4,-5 -3,-4 -4,-5 -3,-4 -3,-5 -4,-4 -3,-5 -3,-4 v -1 l -3,-4 -3,-5 -3,-5 -3,-4 -3,-5 v -1 l -10,-17 -35,20 10,17 1,1 3,5 3,5 3,5 4,5 v 1 l 3,4 v 1 l 3,4 v 1 l 4,4 v 1 l 3,4 v 1 l 4,4 v 1 l 3,4 h 1 l 3,5 4,5 4,5 z m 743,-37 32,23 12,-16 1,-1 v -1 l 3,-4 1,-1 3,-4 v -1 l 3,-4 v -1 l 4,-5 3,-5 3,-5 3,-5 3,-5 v -1 l 3,-5 3,-5 3,-5 v -1 l 2,-5 h 1 l 2,-5 1,-2 9,-18 -36,-17 -9,18 v 1 h -1 l -2,5 -3,5 -2,5 -3,5 -3,5 -2,5 -3,5 -3,4 -3,5 -3,5 -3,4 v 1 l -3,4 -3,5 -1,1 z M 47,481 l 7,19 37,-14 -7,-19 v -1 l -2,-5 -2,-5 -2,-5 -1,-6 -2,-5 -2,-5 -1,-6 -2,-5 -1,-6 -1,-5 -2,-6 -1,-5 -1,-5 v -1 -2 l -4,-19 -39,7 4,20 v 2 l 1,6 2,6 1,6 1,6 h 1 l 1,6 2,6 1,6 2,5 v 1 l 2,5 2,6 2,6 2,5 v 1 l 2,5 z m 898,-27 38,11 6,-19 1,-6 2,-6 1,-6 2,-6 1,-6 1,-6 h 1 l 1,-6 1,-5 v -1 l 1,-5 v -1 l 1,-5 v -1 l 1,-6 1,-6 1,-6 v -3 l 2,-20 -39,-5 -2,20 -1,3 -1,6 v 5 l -1,6 -1,5 v 1 l -1,5 -1,6 -1,5 -2,6 -1,5 -1,5 -2,6 -1,5 -1,5 -1,1 z M 16,320 v 19 l 40,-1 -1,-19 v -1 -5 -6 -5 -1 -5 l 1,-6 v -6 -5 -6 l 1,-6 v -5 l 1,-6 1,-5 v -6 l 1,-2 3,-20 -40,-6 -3,20 v 3 l -1,6 v 6 l -1,6 -1,6 v 6 l -1,6 v 6 1 5 1 6 6 6 6 6 z m 953,-13 v 20 h 39 v -20 -6 -6 -6 -1 -5 -1 l -1,-6 v -6 -6 l -1,-6 -1,-6 v -6 l -1,-6 -1,-6 -1,-6 -1,-3 -3,-20 -39,7 3,19 1,3 1,6 v 5 l 1,6 1,5 v 6 l 1,5 v 6 l 1,6 v 5 6 l 1,6 v 5 z M 33,175 l 38,12 6,-18 1,-5 2,-6 2,-5 2,-5 2,-5 2,-6 2,-5 2,-5 2,-5 3,-5 2,-5 2,-5 3,-5 2,-4 9,-18 -36,-18 -9,18 -2,4 -2,5 v 1 l -3,5 -2,5 -1,1 -2,5 -2,5 v 1 l -3,5 -2,6 -2,5 -2,6 -2,6 -2,5 -2,6 -2,5 z m 911,-17 6,18 38,-13 -7,-18 -2,-5 -2,-6 -2,-6 -2,-5 -2,-6 -3,-5 v -1 l -2,-5 -3,-5 v -1 l -2,-5 -3,-5 v -1 l -2,-5 h -1 l -2,-5 -3,-6 -2,-4 -10,-17 -35,19 10,17 2,4 2,5 3,5 2,5 h 1 l 2,5 2,5 2,5 3,5 2,5 2,5 2,5 v 1 l 2,5 2,5 z M 102,26 l 32,24 12,-16 2,-3 4,-5 3,-4 4,-4 3,-5 4,-4 4,-4 3,-5 4,-4 4,-4 4,-4 4,-4 4,-4 4,-3 14,-14 -28,-29 -14,14 -4,4 -4,4 -4,4 h -1 l -4,5 -4,4 -4,5 -4,4 v 1 l -4,4 -4,5 -4,4 v 1 l -4,4 -4,5 -3,5 h -1 l -2,3 z m 769,-1 12,15 31,-24 -12,-16 -2,-3 -4,-4 v -1 l -4,-4 -4,-5 -4,-4 v -1 l -4,-4 -4,-5 -4,-4 h -1 l -4,-5 -4,-4 -4,-4 h -1 l -4,-5 -4,-4 -4,-3 -15,-14 -27,30 15,13 4,3 4,4 4,4 4,4 4,4 4,4 4,4 4,5 3,4 4,4 4,4 3,5 4,4 z m -654,-118 22,33 17,-11 2,-2 h 1 l 4,-3 5,-3 5,-3 4,-3 5,-3 5,-3 5,-2 5,-3 5,-3 5,-2 5,-2 v -1 l 5,-2 5,-2 18,-8 -16,-37 -19,9 -5,2 -6,3 -5,2 v 1 l -5,2 h -1 l -5,3 -5,3 -5,3 h -1 l -5,3 -5,3 -5,3 -5,3 -5,4 h -1 l -4,3 h -1 l -3,2 z m 542,16 16,10 22,-33 -17,-11 -3,-2 -5,-3 -5,-3 -5,-3 h -1 l -5,-3 -5,-3 -5,-3 -6,-3 -5,-2 v -1 l -5,-2 h -1 l -5,-3 -5,-2 h -1 l -5,-3 -5,-2 h -1 l -18,-8 -16,36 19,8 5,2 5,3 5,2 5,2 5,3 5,3 5,2 5,3 5,2 5,3 4,3 5,3 5,3 z m -395,-90 10,38 19,-5 2,-1 5,-1 6,-1 6,-2 5,-1 5,-1 6,-1 5,-1 h 1 l 5,-1 6,-1 h 5 l 5,-1 h 1 l 5,-1 h 6 l 1,-1 20,-1 -4,-40 -20,2 h -1 l -6,1 h -6 l -6,1 -6,1 -6,1 h -1 l -5,1 h -1 l -5,1 h -1 l -5,1 -6,1 -6,2 -6,1 -6,2 -6,1 -2,1 z m 255,30 20,5 9,-39 -19,-4 -2,-1 -6,-1 -6,-2 -6,-1 -6,-1 -6,-1 -6,-1 -6,-1 -6,-1 -6,-1 h -6 l -6,-1 -6,-1 h -6 -2 l -20,-2 -3,40 20,1 2,1 h 5 l 6,1 h 6 l 5,1 6,1 h 5 l 6,1 5,1 6,1 6,1 5,1 5,1 6,2 z" />
  </g>
</svg>
