<?xml version="1.0" encoding="UTF-8" standalone="no"?>
<svg
   xmlns:dc="http://purl.org/dc/elements/1.1/"
   xmlns:cc="http://creativecommons.org/ns#"
   xmlns:rdf="http://www.w3.org/1999/02/22-rdf-syntax-ns#"
   xmlns:svg="http://www.w3.org/2000/svg"
   xmlns="http://www.w3.org/2000/svg"
   id="svg6"
   viewBox="-10 0 1034 1024"
   version="1.1">
  <metadata
     id="metadata12">
    <rdf:RDF>
      <cc:Work
         rdf:about="">
        <dc:format>image/svg+xml</dc:format>
        <dc:type
           rdf:resource="http://purl.org/dc/dcmitype/StillImage" />
        <dc:title></dc:title>
      </cc:Work>
    </rdf:RDF>
  </metadata>
  <defs
     id="defs10" />
  <g
     style="fill:#ff0000;fill-opacity:1"
     id="g4"
     transform="matrix(1,0,0,-1,0,819)">
    <path
       style="fill:#ff0000;fill-opacity:1"
       id="path2"
       d="m 395,138 h 95 v -32 h -95 z m -190,0 h 95 v -32 h -95 z m 464,62 22,-23 -69,-66 -4,-5 h -7 -26 v 32 h 20 z m -583,0 22,-23 -40,-39 h 42 V 106 H 16 v 32 h 7 z m 292,0 22,-23 -68,-66 -22,23 z m 428,132 22,-23 -69,-66 -22,23 z m -583,0 22,-23 -68,-66 -22,23 z m 291,1 23,-23 -69,-66 -22,23 z m 456,136 -27,-5 20,-22 z m -294,0 -24,-5 18,-18 z m 317,37 q 6,0 10,-4 8,-8 4,-18 L 979,377 q -2,-6 -7.5,-9.5 -5.5,-3.5 -12,-1.5 -6.5,2 -10,7.5 Q 946,379 948,386 l 14,53 -66,-64 -22,23 68,65 -57,-12 q -6,-1 -11.5,2.5 -5.5,3.5 -7,10 -1.5,6.5 2,12 3.5,5.5 10.5,7.5 l 108,22 q 2,1 5,1 z m -294,0 q 6,0 10,-4 l 1,-1 q 7,-8 3,-17 L 684,377 q -2,-6 -7.5,-9.5 -5.5,-3.5 -12,-1.5 -6.5,2 -9.5,7.5 -3,5.5 -1,12.5 l 14,52 -63,-61 -22,23 65,63 -57,-12 q -6,-1 -12,2.5 -6,3.5 -7,10 -1,6.5 2.5,12 3.5,5.5 9.5,7.5 l 109,22 q 2,1 4,1 z m -288,1 q 7,0 11,-5 6,-7 3,-17 L 396,379 q -2,-6 -7.5,-10 -5.5,-4 -12,-2 -6.5,2 -9.5,8 -3,5 -1,12 l 14,53 -67,-64 -22,23 69,66 -57,-12 q -6,-1 -12,2 -6,5 -7,11 -2,6 2,12 3,5 10,6 l 109,22 q 5,1 6,1 z m -50,-42 20,-22 7,28 z" />
  </g>
</svg>
