<?xml version="1.0" encoding="UTF-8" standalone="no"?>
<svg
   xmlns:dc="http://purl.org/dc/elements/1.1/"
   xmlns:cc="http://creativecommons.org/ns#"
   xmlns:rdf="http://www.w3.org/1999/02/22-rdf-syntax-ns#"
   xmlns:svg="http://www.w3.org/2000/svg"
   xmlns="http://www.w3.org/2000/svg"
   id="svg6"
   viewBox="-10 0 1034 1024"
   version="1.1">
  <metadata
     id="metadata12">
    <rdf:RDF>
      <cc:Work
         rdf:about="">
        <dc:format>image/svg+xml</dc:format>
        <dc:type
           rdf:resource="http://purl.org/dc/dcmitype/StillImage" />
        <dc:title></dc:title>
      </cc:Work>
    </rdf:RDF>
  </metadata>
  <defs
     id="defs10" />
  <g
     style="fill:#000000;fill-opacity:1"
     id="g4"
     transform="matrix(1,0,0,-1,-5,818.5)">
    <path
       style="fill:#000000;fill-opacity:1"
       id="path2"
       d="m 498,772 h 30 V 576 h 38 L 512,458 460,578 h 38 z m 14,-315 q 62,0 106,-44 44,-44 44,-106 0,-62 -44,-106 -44,-44 -106,-44 -62,0 -106,44 -44,44 -44,106 0,62 44,106 44,44 106,44 z M 663,307 782,359 V 321 H 978 V 291 H 783 V 253 Z M 512,156 566,37 H 528 V -159 H 498 V 36 H 460 Z M 361,307 241,253 v 38 H 46 v 30 h 194 v 38 z M 512,419 Q 465,419 432.5,386.5 400,354 400,307 400,260 432.5,227.5 465,195 512,195 q 47,0 79.5,32.5 Q 624,260 624,307 624,354 591.5,386.5 559,419 512,419 Z" />
  </g>
</svg>
