<?xml version="1.0" encoding="UTF-8" standalone="no"?>
<svg
   xmlns:dc="http://purl.org/dc/elements/1.1/"
   xmlns:cc="http://creativecommons.org/ns#"
   xmlns:rdf="http://www.w3.org/1999/02/22-rdf-syntax-ns#"
   xmlns:svg="http://www.w3.org/2000/svg"
   xmlns="http://www.w3.org/2000/svg"
   id="svg6"
   viewBox="-10 0 1034 1024"
   version="1.1">
  <metadata
     id="metadata12">
    <rdf:RDF>
      <cc:Work
         rdf:about="">
        <dc:format>image/svg+xml</dc:format>
        <dc:type
           rdf:resource="http://purl.org/dc/dcmitype/StillImage" />
        <dc:title></dc:title>
      </cc:Work>
    </rdf:RDF>
  </metadata>
  <defs
     id="defs10" />
  <g
     style="fill:#0070c0;fill-opacity:1"
     id="g4"
     transform="matrix(1,0,0,-1,0,819)">
    <path
       style="fill:#0070c0;fill-opacity:1"
       id="path2"
       d="m 548,-162 h 3 l 7,-26 -4,-1 -4,-1 -3,-1 h -1 -3 l -4,-1 -4,-1 h -4 -3 -1 l -3,-1 h -1 -3 -4 -4 -4 -4 -3 -1 -1 l 2,28 h 1 3 l 4,-1 h 3 3 l 4,1 h 3 3 3 l 4,1 h 3 l 3,1 h 3 l 4,1 z m -133,-6 14,24 3,-1 3,-2 3,-2 3,-1 3,-2 3,-1 4,-1 3,-2 3,-1 3,-1 3,-1 4,-1 3,-1 3,-1 h 3 l -6,-27 -4,1 -3,1 h -1 l -3,1 -4,1 -4,1 -3,1 -1,1 -3,1 -4,1 -3,2 h -1 l -3,1 -4,2 -3,2 -4,2 -3,1 -1,1 z m 202,38 3,2 16,-22 -3,-2 -3,-2 -4,-3 -3,-2 -3,-2 h -1 l -3,-2 v -1 l -3,-2 h -1 l -3,-2 -3,-1 -1,-1 -3,-1 -4,-2 -3,-2 -4,-2 -3,-1 h -1 l -1,-1 -11,25 2,1 3,1 3,2 3,1 3,2 3,2 4,1 3,2 3,2 3,2 3,2 3,2 3,2 z m -269,16 20,19 1,-1 2,-3 3,-3 3,-2 3,-3 3,-3 3,-3 3,-2 3,-3 3,-2 3,-3 3,-2 3,-3 3,-2 -6,-7 -10,-15 -4,2 v 1 l -3,2 -3,3 -4,2 v 1 l -3,2 -3,3 -3,3 h -1 l -3,3 -3,3 -3,3 -3,3 -3,3 v 1 l -3,3 z m 324,38 3,3 22,-17 -3,-3 -3,-4 -3,-3 v -1 l -3,-3 -3,-3 v -1 l -3,-3 -3,-3 h -1 l -3,-3 v -1 l -3,-3 -3,-3 -3,-3 -3,-3 -2,-2 -19,21 2,1 3,3 3,3 3,2 3,3 2,3 3,3 3,4 3,3 3,3 2,4 h 1 z m -374,31 23,14 2,-4 3,-4 2,-4 3,-4 2,-4 3,-3 v -1 l 2,-3 3,-4 3,-4 2,-3 3,-4 2,-2 -22,-17 -2,2 v 1 l -2,3 h -1 l -2,4 -3,4 -3,4 -3,4 -3,4 -2,4 -3,4 v 1 l -3,4 -2,4 z m 417,36 2,4 25,-13 -2,-4 h -1 l -2,-4 v -1 l -2,-4 -3,-5 -2,-4 -3,-4 v -1 l -3,-4 -2,-4 -3,-4 v -1 l -3,-4 -2,-4 -1,-1 -23,16 h 1 l 2,4 3,4 2,4 3,4 2,4 3,5 2,4 3,4 2,4 z m -454,39 25,11 4,-9 4,-9 4,-10 2,-4 2,-5 2,-4 3,-5 1,-3 -24,-13 -2,4 -2,4 v 1 l -3,4 -2,5 -2,5 -4,9 v 1 h -1 l -4,9 v 1 z m 485,31 2,8 26,-9 -2,-8 h -1 l -3,-10 -4,-10 -4,-10 v -1 l -4,-9 h -1 v -1 l -1,-3 -25,11 1,4 4,9 4,10 4,10 z m -511,49 27,7 1,-4 2,-11 3,-10 4,-10 3,-11 2,-5 -26,-9 -2,6 -3,10 h -1 v 1 l -3,10 -3,11 -3,11 z m 534,35 v 1 l 27,-5 v -1 l -3,-11 v -1 l -2,-11 -3,-11 -3,-11 -2,-8 -27,7 3,8 2,11 3,11 3,11 z m -550,48 27,3 1,-6 2,-11 2,-11 2,-11 2,-12 v -2 l -26,-5 -1,2 -2,11 -2,12 -2,11 v 1 l -2,11 z m 562,32 1,1 27,-2 v -2 l -2,-12 -1,-12 -2,-12 -2,-11 v -1 l -1,-6 -27,5 1,6 2,11 2,12 1,11 z m -569,51 27,1 v -6 l 1,-11 1,-12 1,-12 1,-11 v -2 l -27,-3 -1,2 -1,12 -1,12 -1,12 v 12 z m 574,37 h 27 v -6 -12 -12 -1 l -1,-12 v -12 l -1,-7 -27,2 v 7 l 1,11 v 12 12 l 1,12 z m -574,43 1,4 27,-2 v -4 l -1,-11 v -12 -12 l -1,-12 v -3 h -27 v 3 12 12 1 l 1,12 z m 569,38 27,3 1,-5 1,-12 1,-12 1,-12 v -12 -3 l -27,-1 v 3 l -1,11 -1,12 -1,12 -1,11 z m -559,46 v 3 l 27,-5 v -3 l -2,-11 -2,-12 -1,-11 -1,-12 -1,-4 -27,2 v 5 l 2,12 1,12 2,12 2,11 z m 546,34 27,6 1,-6 2,-11 2,-12 2,-11 v -1 l 2,-11 1,-3 -28,-4 v 3 l -2,11 -2,11 -2,11 -2,12 z m -529,45 2,5 26,-7 -2,-5 -2,-11 -3,-11 -3,-11 -2,-10 -1,-4 -27,5 1,4 3,11 v 1 l 2,11 3,11 z m 507,32 26,9 3,-9 3,-10 h 1 v -1 l 3,-10 3,-11 3,-11 v -1 l -26,-7 -1,1 -2,11 -3,10 -4,10 -3,11 z m -477,52 25,-11 v -1 l -4,-9 -4,-10 -4,-10 -4,-9 -3,-10 v -1 l -2,1 -24,8 3,11 h 1 l 3,10 4,10 4,10 v 1 l 4,9 h 1 z m 445,22 25,13 v -2 h 1 l 2,-5 2,-4 v -1 l 3,-4 2,-5 2,-5 4,-9 v -1 h 1 l 4,-9 v -1 l 2,-5 -25,-11 -3,6 -4,9 -4,10 -2,4 -2,5 -2,4 -3,5 -2,4 z m -406,51 1,2 23,-15 -1,-2 -3,-4 -2,-4 -3,-4 -2,-4 -3,-5 -2,-4 -3,-4 -2,-4 -2,-5 -2,-4 -2,-2 -24,12 1,2 2,5 h 1 l 2,4 v 1 l 2,4 3,5 2,4 3,4 v 1 l 3,4 2,4 3,4 v 1 z m 363,15 21,18 2,-2 3,-3 v -1 l 2,-3 h 1 l 2,-4 3,-4 3,-4 3,-4 3,-4 2,-4 3,-4 v -1 l 3,-4 2,-4 1,-1 -24,-14 v 1 l -3,4 -2,4 -3,4 -2,4 -3,3 v 1 l -2,3 -3,4 -3,4 -2,3 -3,4 -3,3 z m -310,50 2,2 19,-20 -2,-2 -3,-3 -3,-2 -3,-3 -2,-3 -3,-3 -3,-4 -3,-3 -3,-3 -2,-4 h -1 l -2,-3 -3,-3 -2,-3 -22,17 2,2 v 1 l 3,3 3,4 3,3 v 1 l 3,3 3,3 v 1 l 3,3 3,3 h 1 l 3,3 v 1 l 3,3 3,3 z m 254,5 15,22 3,-2 4,-2 v -1 l 3,-2 3,-3 4,-2 v -1 l 3,-2 3,-3 3,-3 h 1 l 3,-3 3,-3 3,-3 3,-3 3,-3 v -1 l 2,-1 -20,-19 -1,2 -3,3 -3,2 -3,3 -3,3 -3,3 -3,2 -3,3 -3,2 -3,3 -3,2 -3,3 -3,2 z m -182,45 2,1 11,-25 -2,-1 -3,-2 -3,-1 -3,-2 -3,-2 -4,-1 -3,-2 -3,-2 -3,-2 -3,-2 -3,-2 -3,-2 -3,-2 -3,-2 -2,-2 -17,22 2,1 v 1 l 4,2 3,2 4,3 3,2 3,2 h 1 l 3,2 v 1 l 3,2 h 1 l 3,2 3,1 1,1 3,1 4,2 3,2 z m 112,-14 6,27 3,-1 4,-1 3,-1 h 1 l 3,-1 4,-1 4,-1 3,-1 1,-1 3,-1 4,-1 3,-2 h 1 l 3,-1 4,-2 3,-2 4,-2 3,-1 1,-1 -13,-24 h -1 l -3,2 -3,2 -3,1 -3,2 -3,1 -4,1 -3,2 -3,1 -3,1 -3,1 -4,1 -3,1 -3,1 h -3 z m -37,31 h 4 4 4 2 l -2,-28 h -1 l -4,1 h -3 -3 l -4,-1 h -3 -3 -3 l -4,-1 h -3 l -3,-1 h -3 l -4,-1 -3,-1 h -3 l -3,-1 -7,26 3,1 4,1 4,1 3,1 h 1 3 l 4,1 4,1 h 4 3 1 l 3,1 h 1 3 z" />
  </g>
</svg>
