<?xml version="1.0" encoding="UTF-8" standalone="no"?>
<svg
   xmlns:dc="http://purl.org/dc/elements/1.1/"
   xmlns:cc="http://creativecommons.org/ns#"
   xmlns:rdf="http://www.w3.org/1999/02/22-rdf-syntax-ns#"
   xmlns:svg="http://www.w3.org/2000/svg"
   xmlns="http://www.w3.org/2000/svg"
   id="svg6"
   viewBox="-10 0 1034 1024"
   version="1.1">
  <metadata
     id="metadata12">
    <rdf:RDF>
      <cc:Work
         rdf:about="">
        <dc:format>image/svg+xml</dc:format>
        <dc:type
           rdf:resource="http://purl.org/dc/dcmitype/StillImage" />
        <dc:title></dc:title>
      </cc:Work>
    </rdf:RDF>
  </metadata>
  <defs
     id="defs10" />
  <g
     style="fill:#77933c;fill-opacity:1"
     id="g4"
     transform="matrix(1,0,0,-1,0,819)">
    <path
       style="fill:#77933c;fill-opacity:1"
       id="path2"
       d="m 546,-153 h 5 l 3,-38 -5,-1 h -6 -6 l -6,-1 h -1 -5 -1 -6 -6 -6 -6 -1 -5 -1 l -6,1 h -6 -6 -1 l 3,39 h 1 5 l 6,-1 h 6 6 5 6 6 5 6 6 l 6,1 z m -190,-15 12,37 5,-2 5,-1 5,-2 6,-2 5,-1 5,-1 6,-2 6,-1 5,-1 5,-1 h 1 l 5,-1 6,-1 5,-1 2,-1 -6,-38 h -2 l -6,1 -6,2 -6,1 -6,1 -6,1 -6,2 -6,1 -6,2 -6,1 -5,2 h -1 l -5,2 h -1 l -5,1 z m 301,37 2,1 13,-37 -3,-1 -6,-2 -5,-1 h -1 l -5,-2 h -1 l -5,-2 -6,-1 -6,-2 -6,-1 -6,-2 -6,-1 -6,-1 -6,-1 -6,-2 h -4 l -6,38 h 3 v 1 l 6,1 5,1 h 1 l 5,1 5,1 6,1 6,2 5,1 5,1 6,2 5,2 5,1 z m -410,14 20,33 3,-2 5,-3 5,-3 5,-3 5,-2 5,-3 5,-3 5,-2 5,-3 5,-2 5,-3 5,-2 5,-2 3,-1 -15,-36 -3,1 -5,3 h -1 l -5,2 -6,3 -5,3 -6,2 -5,3 -5,3 h -1 l -5,3 -5,3 -5,3 h -1 l -5,3 -5,3 z m 512,34 1,1 20,-33 -1,-1 -5,-3 -5,-3 -5,-3 h -1 l -5,-3 -5,-3 -5,-3 h -1 l -5,-3 -5,-3 -6,-2 -5,-3 -6,-3 -5,-2 h -1 l -5,-2 -15,35 5,2 5,2 5,3 5,2 5,3 5,2 5,3 5,3 5,2 5,3 5,3 5,3 z m -606,42 28,26 h 1 l 4,-4 4,-4 4,-4 4,-4 4,-4 5,-4 4,-4 4,-3 5,-4 4,-3 4,-4 5,-3 4,-3 -23,-31 -4,3 -5,3 v 1 l -5,3 -5,4 -5,4 -4,4 -5,4 -4,4 h -1 l -4,4 v 1 l -5,4 -4,4 -4,4 h -1 v 1 l -4,4 z m 689,26 3,3 28,-27 -3,-3 -4,-4 v -1 h -1 l -4,-4 -4,-4 -5,-4 v -1 l -4,-4 h -1 l -4,-4 -5,-4 -4,-4 -5,-4 -5,-4 -5,-3 v -1 l -5,-3 -1,-1 -23,31 1,1 5,3 4,4 4,3 5,4 4,3 4,4 5,4 4,4 4,4 4,4 4,4 z m -761,69 33,20 2,-4 3,-5 3,-5 3,-4 3,-5 3,-5 3,-4 h 1 l 3,-5 3,-5 4,-4 3,-5 4,-4 3,-4 1,-2 -29,-25 -2,2 -4,5 -3,5 h -1 l -3,5 -4,4 v 1 l -3,4 h -1 v 1 l -3,4 v 1 l -3,4 -1,1 -3,5 -3,5 -4,5 -3,5 -3,5 z m 830,21 1,2 33,-19 -1,-2 v -1 l -3,-5 -3,-5 -3,-5 -4,-5 -3,-5 -3,-5 -1,-1 -3,-4 v -1 l -3,-4 v -1 h -1 l -3,-4 V 9 l -4,-4 -3,-5 h -1 l -3,-5 -3,-4 -30,25 2,3 4,4 3,5 4,4 3,5 3,5 h 1 l 3,4 3,5 3,5 3,4 3,5 3,5 z m -878,89 37,12 1,-3 1,-5 2,-6 2,-5 2,-6 2,-5 2,-5 2,-5 2,-5 v -1 l 2,-5 2,-5 2,-5 3,-5 2,-4 -35,-16 -2,3 -3,6 -2,5 v 1 l -3,5 -2,6 -2,5 -2,6 h -1 l -2,6 -2,5 v 1 l -2,5 -2,6 -2,6 -1,5 v 1 z m 922,14 v 1 l 37,-11 v -1 l -2,-5 v -1 l -1,-5 -2,-6 -2,-6 -2,-5 v -1 l -2,-5 -2,-6 h -1 l -2,-6 -2,-5 -2,-6 -3,-5 v -1 l -2,-5 -3,-6 -34,16 -1,1 3,5 2,5 2,5 2,5 v 1 l 2,5 2,5 2,5 2,5 2,6 2,5 2,6 1,5 z m -942,105 38,2 v -1 l 1,-6 v -5 -6 l 1,-6 v -5 l 1,-6 1,-6 1,-5 1,-6 v -5 h 1 l 1,-6 1,-5 v -1 l 1,-5 -38,-7 -1,5 -1,6 -2,6 -1,6 -1,6 v 6 l -1,6 -1,6 v 1 l -1,5 v 1 6 l -1,6 v 6 6 z m 960,1 v 5 l 39,-2 -1,-5 v -6 -6 l -1,-6 v -6 -1 l -1,-5 v -1 l -1,-6 -1,-6 v -6 h -1 v -6 l -1,-6 -2,-6 -1,-6 v -2 l -38,8 v 1 1 l 1,5 1,6 h 1 v 5 l 1,6 1,5 1,6 1,6 v 5 l 1,6 v 6 5 z M 21,399 v 4 l 38,-7 v -4 l -1,-6 h -1 v -5 l -1,-6 -1,-5 -1,-6 -1,-6 v -5 l -1,-6 v -6 -5 l -1,-6 v -6 -2 l -39,1 v 2 1 l 1,6 v 6 6 l 1,6 v 6 1 l 1,5 v 1 l 1,6 1,6 v 6 l 1,6 1,6 z m 942,7 37,8 1,-3 1,-6 1,-6 2,-6 1,-6 v -6 h 1 v -6 l 1,-6 1,-6 v -1 l 1,-5 v -1 -6 l 1,-6 v -6 -3 l -38,-2 -1,3 v 5 6 l -1,6 v 5 l -1,6 -1,6 -1,5 -1,6 v 5 h -1 l -1,6 -1,5 v 1 l -1,5 z m -906,109 1,2 35,-16 -1,-2 -2,-5 -2,-5 -2,-5 v -1 l -2,-5 -2,-5 -2,-5 -2,-5 -2,-6 -2,-5 -2,-6 -1,-5 -2,-5 -1,-4 -37,10 1,4 v 1 l 2,5 v 1 l 1,5 2,6 2,6 2,5 v 1 l 2,5 2,6 h 1 l 2,6 2,5 2,6 3,5 v 1 z m 869,-4 35,17 v -2 l 3,-5 3,-6 2,-5 v -1 l 3,-5 2,-6 2,-5 2,-6 h 1 l 2,-6 2,-5 v -1 l 2,-5 2,-6 2,-6 1,-5 -37,-11 -1,4 -2,6 -2,5 -2,6 -2,5 -2,5 -2,5 -2,5 v 1 l -2,5 -2,5 -2,5 -3,5 -2,5 z m -805,108 1,1 30,-25 -4,-4 -3,-5 -4,-4 -3,-5 -3,-5 h -1 l -3,-4 -3,-5 -3,-5 -3,-4 -3,-5 -3,-5 -3,-5 -3,-5 -9,6 -24,13 3,5 v 1 l 3,5 3,5 3,5 4,5 3,5 3,5 1,1 3,4 v 1 l 3,4 v 1 h 1 l 3,4 v 1 l 4,4 3,5 h 1 z m 744,-15 30,24 4,-4 4,-5 3,-5 h 1 l 3,-5 4,-4 v -1 l 3,-4 h 1 v -1 l 3,-4 v -1 l 3,-4 1,-1 3,-5 3,-5 4,-5 3,-5 3,-5 v -1 l -33,-20 v 1 l -3,5 -3,5 -3,4 -3,5 -3,5 -3,4 h -1 l -3,5 -3,5 -4,4 -3,5 -4,4 -3,4 z m -660,98 3,2 23,-31 -3,-2 -4,-4 -4,-3 -5,-4 -4,-3 -4,-4 -5,-4 -4,-4 -4,-4 -4,-4 -4,-4 -4,-4 -4,-4 -2,-2 -28,27 2,2 4,4 4,4 v 1 h 1 l 4,4 4,4 5,4 v 1 l 4,4 h 1 l 4,4 5,4 4,4 5,4 5,4 5,3 z m 579,-23 23,32 2,-2 h 1 l 4,-4 5,-3 v -1 l 5,-3 5,-4 5,-4 4,-4 5,-4 4,-4 h 1 l 4,-4 v -1 l 5,-4 4,-4 4,-4 h 1 v -1 l 2,-2 -28,-27 -2,2 -4,4 -4,4 -4,4 -4,4 -5,4 -4,4 -4,3 -5,4 -4,3 -4,4 -5,3 -4,4 z m -474,85 1,1 16,-36 h -2 l -5,-2 -5,-3 -5,-2 -5,-3 -5,-2 -5,-3 -5,-3 -5,-2 -5,-3 -5,-3 -5,-3 -5,-3 -4,-3 -20,33 4,3 5,3 5,3 5,3 h 1 l 5,3 5,3 5,3 h 1 l 5,3 5,3 6,2 5,3 6,3 5,2 z m 378,-30 14,35 h 1 l 6,-2 5,-3 h 1 l 5,-2 6,-3 5,-3 6,-2 5,-3 5,-3 h 1 l 5,-3 5,-3 5,-3 h 1 l 5,-3 5,-3 -20,-33 -5,3 -5,3 -5,3 -5,2 -5,3 -5,3 -5,2 -5,3 -5,2 -5,3 -5,2 -5,2 -5,2 h -1 z m -262,66 6,-34 1,-4 v -1 l -6,-1 -5,-1 h -1 l -5,-1 -5,-1 -6,-1 -6,-2 -5,-1 -5,-1 -6,-2 -5,-2 -5,-1 -6,-2 -5,-2 h -1 l -13,36 1,1 6,2 6,2 5,1 h 1 l 5,2 h 1 l 5,2 6,1 6,2 6,1 6,2 6,1 6,1 6,1 z m 154,-37 6,38 h 6 l 6,-1 6,-2 6,-1 6,-1 6,-1 6,-2 6,-1 6,-2 6,-1 5,-2 h 1 l 5,-2 h 1 l 5,-1 1,-1 -11,-37 -2,1 -5,1 -5,2 -6,2 -5,1 -5,1 -6,2 -6,1 -5,1 -5,1 h -1 l -5,1 -6,1 v 1 h -5 z m -74,44 h 6 6 6 1 5 1 l 6,-1 h 6 3 l -2,-39 h -3 l -6,1 h -6 -6 -5 -6 -6 -5 -6 -6 l -6,-1 h -5 -6 l -2,-1 -4,39 h 3 l 6,1 h 6 6 l 6,1 h 1 5 1 z" />
  </g>
</svg>
