<?xml version="1.0" encoding="UTF-8" standalone="no"?>
<svg
   xmlns:dc="http://purl.org/dc/elements/1.1/"
   xmlns:cc="http://creativecommons.org/ns#"
   xmlns:rdf="http://www.w3.org/1999/02/22-rdf-syntax-ns#"
   xmlns:svg="http://www.w3.org/2000/svg"
   xmlns="http://www.w3.org/2000/svg"
   id="svg6"
   viewBox="-10 0 1034 1024"
   version="1.1">
  <metadata
     id="metadata12">
    <rdf:RDF>
      <cc:Work
         rdf:about="">
        <dc:format>image/svg+xml</dc:format>
        <dc:type
           rdf:resource="http://purl.org/dc/dcmitype/StillImage" />
        <dc:title></dc:title>
      </cc:Work>
    </rdf:RDF>
  </metadata>
  <defs
     id="defs10" />
  <g
     style="fill:#000000;fill-opacity:1"
     id="g4"
     transform="matrix(1,0,0,-1,-5,819)">
    <path
       style="fill:#000000;fill-opacity:1"
       id="path2"
       d="m 256,763 h 1 q 18,0 30.5,-12.5 Q 300,738 300,721 v -1 -70 -104 h -86 v 114 h 1 v 60 l -1,1 q 0,17 12.5,29.5 Q 239,763 256,763 Z m 170,0 h 1 q 18,0 30.5,-12.5 Q 470,738 470,721 v -1 -70 -104 h -86 v 114 h 1 v 60 l -1,1 q 0,17 12.5,29.5 Q 409,763 426,763 Z m 170,0 h 1 q 18,0 30.5,-12.5 Q 640,738 640,721 v -1 -70 -104 h -85 v 114 60 l -1,1 q 0,17 12.5,29.5 Q 579,763 596,763 Z m 170,0 h 1 q 18,0 30.5,-12.5 Q 810,738 810,721 v -1 -70 -104 h -85 v 114 60 l -1,1 q 0,17 12.5,29.5 Q 749,763 766,763 Z M 215,476 h 85 V 246 h -85 z m 170,0 h 85 V 246 h -85 z m 170,0 h 85 V 246 h -85 z m 170,0 h 85 V 246 H 725 Z M 215,174 h 85 v -226 -54 q 0,-18 -12.5,-30.5 Q 275,-149 257,-149 q -18,0 -30.5,12.5 Q 214,-124 214,-106 h 1 v 46 z m 170,0 h 85 v -226 -54 q 0,-18 -12.5,-30.5 Q 445,-149 427,-149 q -18,0 -30.5,12.5 Q 384,-124 384,-106 h 1 v 46 z m 170,0 h 85 v -226 -54 q 0,-18 -12.5,-30.5 Q 615,-149 597,-149 q -18,0 -30.5,12.5 Q 554,-124 554,-106 h 1 v 46 z m 170,0 h 85 v -226 -54 q 0,-18 -12.5,-30.5 Q 785,-149 767,-149 q -18,0 -30.5,12.5 Q 724,-124 724,-106 h 1 v 46 z" />
  </g>
</svg>
