<?xml version="1.0" encoding="UTF-8" standalone="no"?>
<svg
   xmlns:dc="http://purl.org/dc/elements/1.1/"
   xmlns:cc="http://creativecommons.org/ns#"
   xmlns:rdf="http://www.w3.org/1999/02/22-rdf-syntax-ns#"
   xmlns:svg="http://www.w3.org/2000/svg"
   xmlns="http://www.w3.org/2000/svg"
   id="svg6"
   viewBox="-10 0 1034 1024"
   version="1.1">
  <metadata
     id="metadata12">
    <rdf:RDF>
      <cc:Work
         rdf:about="">
        <dc:format>image/svg+xml</dc:format>
        <dc:type
           rdf:resource="http://purl.org/dc/dcmitype/StillImage" />
        <dc:title></dc:title>
      </cc:Work>
    </rdf:RDF>
  </metadata>
  <defs
     id="defs10" />
  <g
     style="fill:#000000;fill-opacity:1"
     id="g4"
     transform="matrix(1,0,0,-1,-5.4615385,819)">
    <path
       style="fill:#000000;fill-opacity:1"
       id="path2"
       d="m 767,763 q 18,0 30.5,-12.5 Q 810,738 810,720 v -826 q 0,-18 -12.5,-30.5 Q 785,-149 767,-149 q -19,1 -31,13 -12,12 -11,27 v 3 826 q 0,18 12,30.5 12,12.5 29,12.5 z m -170,0 q 18,0 30.5,-12.5 Q 640,738 640,720 v -826 q 0,-18 -12.5,-30.5 Q 615,-149 597,-149 q -19,1 -31,13 -12,12 -11,27 v 3 826 q 0,18 12,30.5 12,12.5 29,12.5 z m -170,0 q 18,0 30.5,-12.5 Q 470,738 470,720 V 470.5 162 -106 q 0,-18 -12.5,-30.5 Q 445,-149 427,-149 q -19,1 -31,13 -12,12 -11,27 v 3 q -1,82 -1,402 v 190 q 0,165 1,234 0,18 12,30.5 12,12.5 29,12.5 z m -170,0 q 18,0 30.5,-12.5 Q 300,738 300,720 q -1,-258 -1,-465 0,-207 1,-361 0,-18 -12.5,-30.5 Q 275,-149 257,-149 q -19,1 -31,13 -12,12 -11,27 v 3 826 q 0,18 12,30.5 12,12.5 29,12.5 z" />
  </g>
</svg>
