<?xml version="1.0" encoding="UTF-8" standalone="no"?>
<svg
   xmlns:dc="http://purl.org/dc/elements/1.1/"
   xmlns:cc="http://creativecommons.org/ns#"
   xmlns:rdf="http://www.w3.org/1999/02/22-rdf-syntax-ns#"
   xmlns:svg="http://www.w3.org/2000/svg"
   xmlns="http://www.w3.org/2000/svg"
   id="svg6"
   viewBox="-10 0 1034 1024"
   version="1.1">
  <metadata
     id="metadata12">
    <rdf:RDF>
      <cc:Work
         rdf:about="">
        <dc:format>image/svg+xml</dc:format>
        <dc:type
           rdf:resource="http://purl.org/dc/dcmitype/StillImage" />
        <dc:title></dc:title>
      </cc:Work>
    </rdf:RDF>
  </metadata>
  <defs
     id="defs10" />
  <g
     style="fill:#000000;fill-opacity:1"
     id="g4"
     transform="matrix(1,0,0,-1,-5,819)">
    <path
       style="fill:#000000;fill-opacity:1"
       id="path2"
       d="m 881,-98 q 8,-13 7,-22 0,-8 -9,-14 -8,-6 -27,-8 -18,-2 -47,-2 -28,0 -45,1 -16,1 -26,4 -9,4 -16,9 -5,6 -8,12 L 507,217 306,-118 q -4,-7 -10,-12 -5,-5 -15,-9 -9,-3 -25,-4 -16,-1 -42,-1 -27,0 -46,2 -17,2 -25,8 -8,6 -7,14 1,9 9,22 L 408,315 159,712 q -8,13 -8,21 0,9 8,15 9,7 27,9 19,1 49,1 27,0 43,-1 17,-1 26.5,-4 9.5,-3 14,-7.5 Q 323,741 327,734 L 520,420 715,734 q 4,6 8.5,10.5 4.5,4.5 11.5,7.5 8,4 23,5 15,1 40,1 27,0 44,-1 18,-2 27,-8 8,-5 7,-14 -1,-9 -9,-23 L 620,319 Z" />
  </g>
</svg>
