<?xml version="1.0" encoding="UTF-8" standalone="no"?>
<svg
   xmlns:dc="http://purl.org/dc/elements/1.1/"
   xmlns:cc="http://creativecommons.org/ns#"
   xmlns:rdf="http://www.w3.org/1999/02/22-rdf-syntax-ns#"
   xmlns:svg="http://www.w3.org/2000/svg"
   xmlns="http://www.w3.org/2000/svg"
   id="svg6"
   viewBox="-10 0 1034 1024"
   version="1.1">
  <metadata
     id="metadata12">
    <rdf:RDF>
      <cc:Work
         rdf:about="">
        <dc:format>image/svg+xml</dc:format>
        <dc:type
           rdf:resource="http://purl.org/dc/dcmitype/StillImage" />
        <dc:title></dc:title>
      </cc:Work>
    </rdf:RDF>
  </metadata>
  <defs
     id="defs10" />
  <g
     style="display:inline;fill:#4f81bd;fill-opacity:1"
     id="g4"
     transform="matrix(1,0,0,-1,0,819)">
    <path
       style="fill:#0070c0;fill-opacity:1"
       id="path2"
       d="M 972,318.5 Q 972,224 935,138.5 898,53 836,-9 774,-71 688,-108 602,-145 507.5,-145 413,-145 327,-108 241,-71 178.5,-9 116,53 79,138.5 42,224 42,318.5 q 0,94.5 37,180 37,85.5 99.5,147.5 62.5,62 148.5,99 86,37 180.5,37 94.5,0 180.5,-37 86,-37 148,-99 62,-62 99,-147.5 37,-85.5 37,-180 z" />
  </g>
</svg>
