<?xml version="1.0" encoding="UTF-8" standalone="no"?>
<svg
   xmlns:dc="http://purl.org/dc/elements/1.1/"
   xmlns:cc="http://creativecommons.org/ns#"
   xmlns:rdf="http://www.w3.org/1999/02/22-rdf-syntax-ns#"
   xmlns:svg="http://www.w3.org/2000/svg"
   xmlns="http://www.w3.org/2000/svg"
   version="1.1"
   viewBox="-10 0 1034 1024"
   id="svg6">
  <metadata
     id="metadata12">
    <rdf:RDF>
      <cc:Work
         rdf:about="">
        <dc:format>image/svg+xml</dc:format>
        <dc:type
           rdf:resource="http://purl.org/dc/dcmitype/StillImage" />
        <dc:title></dc:title>
      </cc:Work>
    </rdf:RDF>
  </metadata>
  <defs
     id="defs10" />
  <g
     style="fill:#0070c0;fill-opacity:1"
     transform="matrix(1,0,0,-1,0,819)"
     id="g4">
    <path
       d="m 972.064,318.637 q 0,-94.1933 -36.8307,-179.975 -36.8307,-85.7813 -99.0795,-147.818 -62.2487,-62.0362 -148.324,-98.7412 -86.0751,-36.705 -180.591,-36.705 -94.516,0 -180.591,36.705 -86.075,36.705 -148.324,98.7412 -62.2486,62.0362 -99.0791,147.817 -36.8306,85.7813 -36.8306,179.975 0,94.1933 36.8306,179.974 36.8306,85.7811 99.0791,147.817 62.2486,62.0361 148.324,98.7409 86.075,36.7048 180.591,36.7048 94.516,0 180.591,-36.7048 86.0751,-36.7048 148.324,-98.7409 62.2488,-62.036 99.0795,-147.817 36.8307,-85.781 36.8307,-179.974 z M 514.115,322.868 93.091,493.181 Q 72.5004,440.623 63.806,393.077 q -8.6944,-47.546 -5.46603,-90.2835 3.22837,-42.7375 10.5023,-75.0407 7.27393,-32.3036 21.0749,-73.0842 z m -0.006,0 413.388,-168.201 q 18.3003,55.4884 26.1067,98.1283 7.80638,42.6399 2.45427,107.068 -5.3521,64.4284 -31.6537,133.321 z"
       id="path2"
       style="fill:#0070c0;fill-opacity:1" />
  </g>
</svg>
