<?xml version="1.0" encoding="utf-8"?>
<!-- Generator: Adobe Illustrator 16.0.0, SVG Export Plug-In . SVG Version: 6.00 Build 0)  -->
<!DOCTYPE svg PUBLIC "-//W3C//DTD SVG 1.1//EN" "http://www.w3.org/Graphics/SVG/1.1/DTD/svg11.dtd">
<svg version="1.1" id="Layer_1" xmlns="http://www.w3.org/2000/svg" xmlns:xlink="http://www.w3.org/1999/xlink" x="0px" y="0px"
	 width="256px" height="256px" viewBox="0 0 256 256" enable-background="new 0 0 256 256" xml:space="preserve">
<rect x="16" y="6" fill="#FFFFFF" width="224.5" height="137"/>
<path d="M246.318,0H9.686v149.764H9.681V256h11V150.268H246.32V0H246.318z M235.318,139.268H20.686V11H235.32v128.268H235.318z"/>
<g>
	<path d="M98.024,123.964V87.756h7.371v30.058h18.328v6.15H98.024z"/>
	<path d="M161.898,123.964h-8.019l-3.188-8.293H136.1l-3.013,8.293h-7.819l14.218-36.507h7.796L161.898,123.964z M148.327,109.521
		l-5.03-13.547l-4.931,13.547H148.327z"/>
</g>
<g>
	<path d="M76.452,67.965V31.458h27.068v6.176H83.823v8.093h18.328v6.151H83.823v9.936h20.395v6.151H76.452z"/>
	<path d="M108.975,49.936c0-3.719,0.556-6.839,1.668-9.363c0.83-1.859,1.963-3.527,3.399-5.005c1.436-1.478,3.009-2.573,4.719-3.287
		c2.274-0.962,4.897-1.444,7.869-1.444c5.379,0,9.682,1.668,12.913,5.005c3.229,3.337,4.842,7.978,4.842,13.92
		c0,5.894-1.602,10.505-4.805,13.833c-3.205,3.329-7.488,4.993-12.85,4.993c-5.429,0-9.745-1.656-12.949-4.968
		C110.577,60.308,108.975,55.747,108.975,49.936z M116.57,49.687c0,4.134,0.954,7.268,2.864,9.4c1.908,2.134,4.332,3.2,7.271,3.2
		c2.937,0,5.349-1.059,7.234-3.175c1.883-2.117,2.826-5.292,2.826-9.525c0-4.184-0.918-7.305-2.752-9.363
		c-1.834-2.058-4.271-3.088-7.308-3.088c-3.039,0-5.487,1.042-7.347,3.125C117.5,42.345,116.57,45.487,116.57,49.687z"/>
	<path d="M173.496,54.542l7.146,2.266c-1.096,3.984-2.918,6.944-5.465,8.878c-2.549,1.934-5.783,2.901-9.699,2.901
		c-4.85,0-8.834-1.656-11.953-4.968c-3.123-3.312-4.682-7.84-4.682-13.584c0-6.076,1.568-10.795,4.705-14.157
		c3.139-3.361,7.264-5.042,12.377-5.042c4.465,0,8.094,1.32,10.883,3.959c1.66,1.561,2.904,3.802,3.734,6.724l-7.295,1.743
		c-0.434-1.893-1.334-3.387-2.703-4.482s-3.033-1.644-4.992-1.644c-2.707,0-4.902,0.971-6.588,2.914
		c-1.684,1.942-2.527,5.089-2.527,9.438c0,4.616,0.83,7.903,2.49,9.861c1.66,1.959,3.818,2.938,6.475,2.938
		c1.959,0,3.645-0.623,5.057-1.868C171.869,59.174,172.881,57.216,173.496,54.542z"/>
</g>
</svg>
