<?xml version="1.0" encoding="utf-8"?>
<!-- Generator: Adobe Illustrator 16.0.0, SVG Export Plug-In . SVG Version: 6.00 Build 0)  -->
<!DOCTYPE svg PUBLIC "-//W3C//DTD SVG 1.1//EN" "http://www.w3.org/Graphics/SVG/1.1/DTD/svg11.dtd">
<svg version="1.1" id="Layer_1" xmlns="http://www.w3.org/2000/svg" xmlns:xlink="http://www.w3.org/1999/xlink" x="0px" y="0px"
	 width="256px" height="256px" viewBox="0 0 256 256" enable-background="new 0 0 256 256" xml:space="preserve">
<rect x="15.5" y="5" fill="#FFFFFF" width="224.5" height="168"/>
<path d="M246.313,0H9.688v172.5H9.672V256h11v-76.75h225.641V0z M235.313,11v95H20.688V11H235.313z M162.833,117v51.25H92.5V117
	H162.833z M20.688,117H85.5v51.25H20.688V117z M169.833,168.25V117h65.479v51.25H169.833z"/>
<g display="none">
	<path display="inline" d="M40.194,159v-33.644h10.901c4.131,0,6.823,0.169,8.078,0.505c1.928,0.505,3.542,1.603,4.842,3.293
		c1.3,1.691,1.951,3.875,1.951,6.553c0,2.064-0.375,3.803-1.125,5.209c-0.75,1.408-1.702,2.514-2.857,3.316
		c-1.156,0.803-2.33,1.334-3.523,1.595c-1.622,0.321-3.97,0.481-7.045,0.481h-4.429V159H40.194z M46.987,131.048v9.548h3.718
		c2.677,0,4.467-0.177,5.37-0.529c0.902-0.352,1.61-0.901,2.123-1.651c0.513-0.749,0.769-1.621,0.769-2.615
		c0-1.225-0.36-2.233-1.079-3.028c-0.719-0.797-1.629-1.293-2.731-1.492c-0.811-0.152-2.44-0.229-4.888-0.229h-3.282V131.048z"/>
</g>
<g>
	<path d="M115.965,159v-33.644h23.064v5.691h-16.271v7.965h14.044v5.69h-14.044V159H115.965z"/>
</g>
<g>
	<path d="M218.758,159h-7.389l-2.938-7.643h-13.449L192.206,159H185l13.104-33.644h7.185L218.758,159z M206.251,145.689
		l-4.636-12.484l-4.545,12.484H206.251z"/>
</g>
<g>
	<path d="M47.23,61.699c0-4.229,0.632-7.778,1.897-10.648c0.944-2.114,2.232-4.012,3.866-5.692c1.633-1.68,3.422-2.926,5.367-3.738
		c2.586-1.095,5.569-1.643,8.949-1.643c6.117,0,11.012,1.897,14.684,5.692c3.672,3.795,5.508,9.072,5.508,15.831
		c0,6.703-1.822,11.947-5.466,15.732c-3.644,3.786-8.515,5.678-14.613,5.678c-6.174,0-11.083-1.883-14.727-5.65
		C49.052,73.495,47.23,68.308,47.23,61.699z M55.868,61.416c0,4.701,1.085,8.265,3.257,10.691c2.171,2.426,4.928,3.639,8.27,3.639
		s6.084-1.204,8.227-3.611c2.143-2.407,3.214-6.018,3.214-10.833c0-4.758-1.043-8.307-3.129-10.648
		c-2.086-2.341-4.857-3.512-8.312-3.512s-6.24,1.185-8.354,3.554C56.925,53.066,55.868,56.64,55.868,61.416z"/>
	<path d="M94.044,82.203V40.686h13.452c5.098,0,8.42,0.208,9.969,0.623c2.379,0.623,4.371,1.978,5.975,4.064
		c1.605,2.086,2.408,4.782,2.408,8.085c0,2.549-0.463,4.692-1.389,6.429c-0.925,1.737-2.1,3.101-3.525,4.092
		c-1.426,0.991-2.875,1.647-4.347,1.968c-2.001,0.396-4.899,0.595-8.694,0.595h-5.466v15.661H94.044z M102.427,47.709V59.49h4.588
		c3.304,0,5.513-0.217,6.627-0.651c1.114-0.434,1.987-1.114,2.62-2.039c0.632-0.925,0.949-2.001,0.949-3.229
		c0-1.51-0.444-2.756-1.331-3.738c-0.888-0.981-2.011-1.595-3.37-1.841c-1.001-0.188-3.012-0.283-6.032-0.283H102.427z"/>
	<path d="M132.729,82.203V40.686h30.785v7.023h-22.402v9.204h20.844v6.995h-20.844v11.3h23.195v6.995H132.729z"/>
	<path d="M171.443,82.203V40.686h17.643c4.438,0,7.662,0.373,9.672,1.119c2.012,0.746,3.621,2.072,4.828,3.979
		c1.209,1.907,1.813,4.088,1.813,6.542c0,3.115-0.916,5.688-2.746,7.717c-1.832,2.03-4.57,3.309-8.213,3.837
		c1.813,1.058,3.309,2.219,4.488,3.483c1.18,1.265,2.771,3.512,4.771,6.74l5.07,8.1h-10.025l-6.061-9.034
		c-2.152-3.229-3.625-5.263-4.418-6.103c-0.793-0.84-1.633-1.416-2.521-1.728c-0.887-0.312-2.293-0.467-4.219-0.467h-1.699v17.332
		H171.443z M179.826,58.244h6.201c4.021,0,6.533-0.17,7.533-0.51c1.002-0.34,1.785-0.925,2.352-1.756
		c0.566-0.831,0.85-1.869,0.85-3.115c0-1.397-0.373-2.525-1.119-3.384c-0.746-0.859-1.799-1.402-3.158-1.628
		c-0.68-0.094-2.719-0.142-6.117-0.142h-6.541V58.244z"/>
</g>
</svg>
