<?xml version="1.0" encoding="utf-8"?>
<!-- Generator: Adobe Illustrator 16.0.0, SVG Export Plug-In . SVG Version: 6.00 Build 0)  -->
<!DOCTYPE svg PUBLIC "-//W3C//DTD SVG 1.1//EN" "http://www.w3.org/Graphics/SVG/1.1/DTD/svg11.dtd">
<svg version="1.1" id="Layer_1" xmlns="http://www.w3.org/2000/svg" xmlns:xlink="http://www.w3.org/1999/xlink" x="0px" y="0px"
	 width="256px" height="256px" viewBox="0 0 256 256" enable-background="new 0 0 256 256" xml:space="preserve">
<rect x="15.5" y="5" fill="#FFFFFF" width="224.5" height="168"/>
<path d="M246.313,0H9.688v172.5H9.672V256h11v-76.75h225.641V0z M235.313,11v95H20.688V11H235.313z M162.833,117v51.25H92.5V117
	H162.833z M20.688,117H85.5v51.25H20.688V117z M169.833,168.25V117h65.479v51.25H169.833z"/>
<g>
	<path d="M40.194,159v-33.644h10.901c4.131,0,6.823,0.169,8.078,0.505c1.928,0.505,3.542,1.603,4.842,3.293
		c1.3,1.691,1.951,3.875,1.951,6.553c0,2.064-0.375,3.803-1.125,5.209c-0.75,1.408-1.702,2.514-2.857,3.316
		c-1.156,0.803-2.33,1.334-3.523,1.595c-1.622,0.321-3.97,0.481-7.045,0.481h-4.429V159H40.194z M46.987,131.048v9.548h3.718
		c2.677,0,4.467-0.177,5.37-0.529c0.902-0.352,1.61-0.901,2.123-1.651c0.513-0.749,0.769-1.621,0.769-2.615
		c0-1.225-0.36-2.233-1.079-3.028c-0.719-0.797-1.629-1.293-2.731-1.492c-0.811-0.152-2.44-0.229-4.888-0.229h-3.282V131.048z"/>
</g>
<g display="none">
	<path display="inline" d="M115.965,159v-33.644h23.064v5.691h-16.271v7.965h14.044v5.69h-14.044V159H115.965z"/>
</g>
<g>
	<path d="M218.758,159h-7.389l-2.938-7.643h-13.449L192.206,159H185l13.104-33.644h7.185L218.758,159z M206.251,145.689
		l-4.636-12.484l-4.545,12.484H206.251z"/>
</g>
<g>
	<path d="M38.778,66.911l7.875-0.766c0.474,2.644,1.436,4.585,2.885,5.824c1.449,1.24,3.404,1.859,5.865,1.859
		c2.606,0,4.571-0.551,5.893-1.654c1.321-1.103,1.982-2.393,1.982-3.869c0-0.948-0.278-1.754-0.834-2.42
		c-0.556-0.665-1.527-1.244-2.912-1.736c-0.948-0.328-3.108-0.911-6.48-1.75c-4.339-1.075-7.383-2.397-9.133-3.965
		c-2.461-2.206-3.691-4.895-3.691-8.066c0-2.042,0.579-3.951,1.736-5.729c1.157-1.777,2.825-3.131,5.004-4.061
		c2.178-0.93,4.808-1.395,7.889-1.395c5.031,0,8.818,1.103,11.361,3.309c2.543,2.206,3.878,5.15,4.006,8.832l-8.094,0.355
		c-0.347-2.06-1.089-3.541-2.229-4.443c-1.14-0.902-2.849-1.354-5.127-1.354c-2.352,0-4.193,0.483-5.523,1.449
		c-0.857,0.62-1.285,1.449-1.285,2.488c0,0.948,0.401,1.759,1.203,2.434c1.021,0.857,3.5,1.75,7.438,2.68
		c3.938,0.93,6.85,1.892,8.736,2.885c1.887,0.994,3.363,2.352,4.43,4.074c1.067,1.722,1.6,3.851,1.6,6.385
		c0,2.297-0.638,4.448-1.914,6.453s-3.081,3.496-5.414,4.471s-5.241,1.463-8.723,1.463c-5.068,0-8.96-1.171-11.676-3.514
		C40.929,74.809,39.306,71.396,38.778,66.911z"/>
	<path d="M87.204,79.954V46.649H75.309v-6.781h31.855v6.781H95.297v33.305H87.204z"/>
	<path d="M112.414,79.954V39.868h17.035c4.283,0,7.396,0.36,9.338,1.08c1.941,0.72,3.495,2.001,4.662,3.842
		c1.166,1.841,1.75,3.947,1.75,6.316c0,3.008-0.885,5.492-2.652,7.451c-1.77,1.96-4.412,3.195-7.93,3.705
		c1.75,1.021,3.193,2.142,4.334,3.363c1.139,1.222,2.675,3.391,4.607,6.508l4.895,7.82h-9.68l-5.853-8.723
		c-2.078-3.117-3.5-5.081-4.266-5.893c-0.766-0.811-1.577-1.367-2.434-1.668c-0.857-0.301-2.215-0.451-4.074-0.451h-1.641v16.734
		h-8.092V79.954z M120.508,56.821h5.988c3.883,0,6.307-0.164,7.273-0.492c0.965-0.328,1.723-0.893,2.27-1.695
		c0.547-0.802,0.82-1.805,0.82-3.008c0-1.349-0.36-2.438-1.08-3.268c-0.721-0.829-1.736-1.354-3.049-1.572
		c-0.656-0.091-2.625-0.137-5.906-0.137h-6.316V56.821z"/>
	<path d="M188.977,79.954h-8.805l-3.5-9.105h-16.023l-3.309,9.105h-8.586l15.613-40.086h8.559L188.977,79.954z M174.074,64.095
		l-5.523-14.875l-5.414,14.875H174.074z"/>
	<path d="M198.137,79.954V46.649h-11.895v-6.781h31.855v6.781H206.23v33.305H198.137z"/>
</g>
</svg>
