<?xml version="1.0" encoding="utf-8"?>
<!-- Generator: Adobe Illustrator 16.0.0, SVG Export Plug-In . SVG Version: 6.00 Build 0)  -->
<!DOCTYPE svg PUBLIC "-//W3C//DTD SVG 1.1//EN" "http://www.w3.org/Graphics/SVG/1.1/DTD/svg11.dtd">
<svg version="1.1" id="Layer_1" xmlns="http://www.w3.org/2000/svg" xmlns:xlink="http://www.w3.org/1999/xlink" x="0px" y="0px"
	 width="256px" height="256px" viewBox="0 0 256 256" enable-background="new 0 0 256 256" xml:space="preserve">
<rect x="15.5" y="5" fill="#FFFFFF" width="224.5" height="168"/>
<path d="M246.313,0H9.688v172.5H9.672V256h11v-76.75h225.641V0z M235.313,11v95H20.688V11H235.313z M162.833,117v51.25H92.5V117
	H162.833z M20.688,117H85.5v51.25H20.688V117z M169.833,168.25V117h65.479v51.25H169.833z"/>
<g display="none">
	<path display="inline" d="M40.194,159v-33.644h10.901c4.131,0,6.823,0.169,8.078,0.505c1.928,0.505,3.542,1.603,4.842,3.293
		c1.3,1.691,1.951,3.875,1.951,6.553c0,2.064-0.375,3.803-1.125,5.209c-0.75,1.408-1.702,2.514-2.857,3.316
		c-1.156,0.803-2.33,1.334-3.523,1.595c-1.622,0.321-3.97,0.481-7.045,0.481h-4.429V159H40.194z M46.987,131.048v9.548h3.718
		c2.677,0,4.467-0.177,5.37-0.529c0.902-0.352,1.61-0.901,2.123-1.651c0.513-0.749,0.769-1.621,0.769-2.615
		c0-1.225-0.36-2.233-1.079-3.028c-0.719-0.797-1.629-1.293-2.731-1.492c-0.811-0.152-2.44-0.229-4.888-0.229h-3.282V131.048z"/>
</g>
<g display="none">
	<path display="inline" d="M115.965,159v-33.644h23.064v5.691h-16.271v7.965h14.044v5.69h-14.044V159H115.965z"/>
</g>
<g>
	<path d="M218.758,159h-7.389l-2.938-7.643h-13.449L192.206,159H185l13.104-33.644h7.185L218.758,159z M206.251,145.689
		l-4.636-12.484l-4.545,12.484H206.251z"/>
</g>
<g>
	<path d="M66.375,80.914V46.42H54.056v-7.023h32.993v7.023H74.758v34.494H66.375z"/>
	<path d="M125.593,80.914h-9.119l-3.625-9.431H96.253l-3.427,9.431h-8.893l16.171-41.518h8.864L125.593,80.914z M110.158,64.488
		l-5.721-15.406L98.83,64.488H110.158z"/>
	<path d="M156.604,65.649l8.128,2.577c-1.246,4.531-3.318,7.897-6.217,10.096c-2.897,2.2-6.574,3.299-11.03,3.299
		c-5.513,0-10.044-1.883-13.594-5.65s-5.324-8.916-5.324-15.449c0-6.91,1.784-12.277,5.353-16.1s8.26-5.735,14.075-5.735
		c5.079,0,9.204,1.501,12.376,4.503c1.888,1.775,3.304,4.324,4.248,7.646l-8.298,1.982c-0.491-2.152-1.515-3.852-3.073-5.098
		c-1.557-1.246-3.45-1.869-5.678-1.869c-3.077,0-5.574,1.104-7.49,3.313c-1.917,2.209-2.875,5.787-2.875,10.733
		c0,5.249,0.944,8.987,2.832,11.215c1.888,2.228,4.343,3.342,7.363,3.342c2.228,0,4.145-0.708,5.749-2.124
		S155.905,68.689,156.604,65.649z"/>
	<path d="M181.271,80.914V46.42h-12.319v-7.023h32.993v7.023h-12.291v34.494H181.271z"/>
</g>
</svg>
